<svg xmlns="http://www.w3.org/2000/svg" width="1em" height="1em" fill="#03a8dc" viewBox="0 0 100 100" font-size="50"><path d="M46.625 38.375h5.625l2 .125 2.75.25 2.438.313 2 .374 1.937.5 1.688.563 1.562.625 1.563.75 1.062.625 1.063.75.937.938.5.937.188.563.312 2.624.375 3.126.25 2.187V56.5l-.187 1.25-.376 1.25-.624 1.313-.75 1.062-.688.75-.062.125h-.126l-.124.25-.5.438-.75.624-.876.5-.874.376-.813.25-1.562.25L64 65h-1.5l-1.812-.187-2.188-.376-2-.5-2.937-.874-1.25-.438-.626-.375-.624-.687-.75-1.188-.563-.625-.5-.375h-.312l-.5.438-.626.874-.687 1-.5.563-.875.438-2.5.812-1.875.5-3.062.688-1.438.187-.812.063h-1.626l-1.812-.188-1.062-.25-.938-.375-.875-.5-.812-.625-.625-.562-.438-.5-.75-1-.375-.626-.625-1.374-.312-.938-.25-1.062-.125-1v-2.126l.187-2.874.313-2.376.437-2.312.5-1.5.375-.625.688-.812.812-.626.938-.562 1.562-.75 1.563-.625 2.25-.75 2.187-.562 1.75-.313 2.75-.375 1.75-.187zM47 40.813l-2.562.124-2.188.188-2.437.375-2.188.438-2.062.562-2.25.688-1.813.687-1.312.688-.75.5-.25.187v.125h-.125l-.25.438-.375 1.937L28 50.813l-.187 1.562-.125 2v1.375l.125 1.375.25.938.625 1.187.625.813 1 .874.812.563 1.063.563 1.25.374 1.312.126 1.313-.063 1.624-.25 2.563-.562 3.563-1 1.312-.438.813-.437.5-.5.437-.563.313-.312.624-.563.813-.5.438-.187.5.062.75.438.687.562.125.188h.125l.125.25.313.25.437.5.5.437.875.438 1.813.562 3.5.938 1.687.374 1.688.25 1.062.063h1.188l1-.187.874-.313 1-.5 1-.75.626-.562.624-.75.5-.813.313-.812.25-1.25.063-1.376-.063-1.687-.312-3.812-.25-1.938-.25-1.125-.25-.562-.376-.563-.562-.562-.875-.563-1.562-.75-2.25-.75-1.563-.437-2.75-.688-2.187-.375-1.876-.25-2.062-.187-2.875-.126z"></path><path d="M48.688 12.375h.437l.625.375 1.313 1 1.124.813 1.25.874 1.126.813 1 .75 1.062.75 1.188.875 1.062.75L61.125 21l1.313 1 2.25 1.625 1.312 1 1 .75 1.188.875.75.563 1.312 1 .875.625 1.125.812 1.063.75 1.124.813.876.625 1.124.812L80 34.875l2 1.5 1.188.875 1.124.875 1.126.813.937.624L87 40l.625.563.25.312.063.438-.438.437-1.187.75-1 .5-1 .438-1.876.687-3.687 1.25-1.125.375-.312.063h-.5l-.376-.188-.312-.375-.125-.312v-.376l.313-.312 2.374-.75 2.25-.75 2-.75 1.5-.687.5-.313-.062-.187-1.625-1.25-1.062-.75L81 37.937l-.75-.562-1.312-1-1.25-.937-1.126-.813-1.062-.75-1.75-1.25-1.062-.75L71.5 31l-1.312-1-2.25-1.625-1.188-.875-1.125-.812-1.062-.813-1-.75-1.126-.812-.874-.625-1.188-.875-1.125-.875-1.062-.75-.876-.625-1-.75-2.374-1.75-1.063-.75-1.187-.875-.876-.688-.937-.687-.75-.5-.375.062-.562.375-1.188.875-.875.688-.812.625-1.75 1.312-1.126.813-.75.5-.937.687-.875.625-1.312 1-.813.563-1.062.75-1.313 1-1.125.812-.687.5L30 28.375l-.937.688-1 .75-1.125.812-1 .75-1 .688-1.188.874-1.062.75-1.125.813-1.188.813L19.5 36l-.812.625-1.125.875-1.125.813-.813.562-1.125.813-1 .624-.375.313-.062.25.312.25 1.063.563 1.312.562 1.875.688 1.938.624 2 .563.312.188.125.25V45l-.375.688-.312.312-.938-.187-1-.313-1.25-.375-2.687-.937-2.75-1.063-1-.5-.626-.437-.687-.5-.187-.25V41l.374-.5 1-.812 2.25-1.626.75-.562 1.126-.812 1.187-.876L17.938 35l1.125-.875 2.125-1.5 1.062-.812L23.375 31l1.188-.875.875-.625.812-.625 1.125-.812 1.188-.875 1-.75 1.062-.813 1.063-.75L32.875 24l.813-.625 2.25-1.625 1.187-.875.813-.625 1.25-.875 1-.75 1.062-.75L42.438 17l.874-.625.75-.562 1.126-.876 1.187-.874.875-.626.938-.75z"></path><path d="M48.875 34.813H51l4 .124 3.563.25 3.124.313 2.938.375 3.688.563 2.624.5 2.626.624 1.562.438 2.438.563 1.75.5 1 .374 1.437.688.375.313-.125.25-1.062.5-2.25.75-2.876.75-1.75.312-1.25.188h-.562l-.625-.313-.812-.75-1-.75-.938-.625-1.562-.875-1.376-.687-1.187-.5-1.812-.626-1.25-.374-1.75-.376-2.813-.374-1.937-.188-2.063-.125-2.25-.062H47.75l-2.437.062-3.063.188-2.625.25-2 .312-1.875.438-1.312.374-1.313.5-1.437.626-1.188.624-1 .626-1.562 1.062-.875.688-.75.624-.5.188h-.938l-1.75-.25-1.812-.437-2.813-.876-1.937-.687-.625-.312.124-.25.5-.313 1.75-.687 1-.313 3.375-.875 1.688-.5 1.063-.312 3-.626 4.562-.75 3.75-.5 3.188-.25 4.437-.25 1.688-.062zM65.313 65.75h.374l.188.375v1.125l-.187 1.438-.25.937-.5 1.5-.876 1.688-.5.812-1.25 1.625-.75.813-.437.5-.562.562-.376.438h-.124v.124l-.5.438-.626.563-.687.562-.812.688-1.063.812-1 .75-1.5.875-.687.313-.938.312-1.312.313-1.188.124h-1.687l-1.313-.187-1.25-.375-1.562-.75-1-.625-1.126-.812-1-.813-.687-.562-.625-.563-.5-.437-1-.938-1-1-.562-.687-.626-.75L35 73.812l-.625-1-.5-.937-.5-1.25L33 69.438l-.25-1.25-.187-1.25v-.876l.124-.187h.938l.5.125.125.313.25 2.062.313 1.375.374 1L36 72.125l.688.813.874.937.75.75.5.438.626.562L41.188 77l1.75 1.25 1.437.938 1 .562.938.313 1.312.25 1.063.062h1.5l1.25-.125.937-.25.813-.312 1-.563 1-.687 4-3 .937-.813.813-.75.687-.75.625-.812.563-.876.5-1 .374-.937.313-1.312.125-.813.125-1.062.188-.313.562-.187z"></path><path d="m40.563 66.063 19 .062.124.063-.062.624-.375.938-.312 1-.813 1.563-1 1.5-.687.812-.75.75-.626.438-.812.5-1.062.5-1.313.437-1.125.25-1.312.125h-.688l-1.312-.125-.813-.125-1.875-.625-1-.5-1.125-.687-.875-.75-.5-.5-.687-.876-.563-.812-.812-1.75-.25-.875-.188-.687-.187-.626v-.437l.312-.125zM41 67.625l-.562.125.062.5.438 1.25.374.625.563.375.25.125.5.063H49l6.188-.063.874-.062.5-.25.376-.438.437-.937.25-1-.312-.188-.376-.062-13.624-.063zM51.438 17.875l.312.125.938.625 1 .688.874.625 1 .687 1.126.813 1.062.75 1.063.875.874.687 1 .75 1.188.875 1 .813 2.25 1.75.75.562 1 .813.813.625 1 .812 1.062.813.813.625 1.062.874 1.625 1.25 1.125.813L75.5 36l.813.563.75.624.5.313v.125l-.313-.062-1.312-.313-1.5-.187-.938-.25-1.062-.438-.876-.625-.624-.562-.313-.25-1.437-1.438-.5-.437-.876-.813-.5-.437-1.624-1.5-.626-.563-.5-.437-.624-.563-.688-.562-.75-.688-.5-.437-.75-.688-.625-.562-.687-.563-1.063-1-.5-.437-.625-.563-1.75-1.5-.687-.562-.876-.75-.687-.563-.75-.687-.687-.563-.876-.687zM46.313 17.813l.124.062-.5.5-.5.438-.75.687-.874.688-.626.562-.624.5-.688.625-.687.563-.938.812-.687.563-.5.437h-.126v.125l-.687.563-.625.562-.5.438-.625.562-.875.813-.687.562-.688.625-.687.563-.876.812-.5.438-.75.687-.5.438-.625.562-.5.438-.375.374h-.125v.126l-.5.437-1.062 1-.937.875-.75.563-.813.5-.812.312-2.75.75-.75.25-.125-.062.5-.5.875-.688 1.125-.812 1-.813 1-.75 1.062-.75 1.125-.875 1.063-.875 1.625-1.25.875-.687 1-.813.874-.687.688-.563 1-.812.625-.5.813-.625.937-.75L38.063 24l1.75-1.375.937-.75.813-.625 1.062-.75 1.25-.937 1.188-.813.937-.687zM73 44.813h1.063l.312.25.5.874.5 1.25.313 1.313.187 1.25.063.688v.937l-.126.625-.437.438-.687.312-.25.063h-.626l-.437-.25-.187-.313-.5-4.937-.25-2.313.062-.125zM24.563 44.75h1.125l.125.063.062.562-.5 2.938-.187 1.624-.125 1.438L25 52.5l-.125.375-.562.063-.75-.188-.5-.312-.375-.438-.25-.687V50.25l.187-1.437.375-1.688.375-1 .438-.75.312-.375z"></path></svg>