<?xml version="1.0" encoding="UTF-8" standalone="no"?>
<svg
   width="364"
   height="400"
   viewBox="0 0 364 400"
   version="1.1"
   id="svg15"
   xmlns:inkscape="http://www.inkscape.org/namespaces/inkscape"
   xmlns:sodipodi="http://sodipodi.sourceforge.net/DTD/sodipodi-0.dtd"
   xmlns="http://www.w3.org/2000/svg"
   xmlns:svg="http://www.w3.org/2000/svg">
  <sodipodi:namedview
     id="namedview15"
     pagecolor="#ffffff"
     bordercolor="#000000"
     borderopacity="0.25"
     inkscape:showpageshadow="2"
     inkscape:pageopacity="0.0"
     inkscape:pagecheckerboard="0"
     inkscape:deskcolor="#d1d1d1" />
  <defs
     id="defs1" />
  <style
     id="style1" />
  <!-- Logo content - white padding removed -->
  <g
     fill="#581c87"
     id="g14">
    <g
       id="g13">
      <g
         id="g12">
            <g
               id="g2">
              <path
                 style="stroke: none; stroke-width: 1; stroke-dasharray: none; stroke-linecap: butt; stroke-dashoffset: 0; stroke-linejoin: miter; stroke-miterlimit: 4;  fill-rule: nonzero; opacity: 1"
                 d="M 352.4121517698858,148.49724829355029 C 348.79098105902364,140.57383007145887 343.8885767633126,133.237081964535 339.5998159213975,125.63060047132723 L 338.7231824159747,126.10263389732415 C 338.952455794316,128.32119099950975 339.35705587374196,130.53974810169538 339.3975158816845,132.75830520388098 C 339.63353259468306,153.8581993459441 340.0179026701377,174.9580934880072 339.92349598493826,196.05798763007033 C 339.84931930371016,211.63509068796927 336.100025234363,226.5108869415299 329.6399106328621,240.67188972143802 C 328.2440403588426,243.74685032507526 326.47054334402554,246.653227562285 324.872373030293,249.64052481537985 C 323.6653161266723,237.50252243260147 320.0980920930669,226.42996692564466 315.0136177616141,215.72829482482842 C 314.45392098507494,214.54821125983605 314.81806105655824,212.47800752010664 315.5058811915824,211.2304906085433 C 340.2539193831361,166.21873177240678 341.2114729044442,121.13279625504212 315.2563778092697,76.36379746656115 C 283.5327296966312,21.265322857432697 220.93719713656955,-8.349825620184907 158.21760031474554,2.0657362146431852 C 119.24786933136997,8.492134142858617 86.4010862166402,26.267564298971866 61.36308463483121,57.30039039094196 C 44.98352475273745,77.59108437415318 33.96491592303752,100.40378551911947 30.72811528762995,126.5611806540069 C 27.005794556911244,156.71062990589704 33.25012244938502,184.810105422029 48.388908754572526,211.02144723417325 C 49.3194889372522,212.61961754790576 49.339718941223495,213.7187810970129 48.59120879428549,215.54622478908672 C 45.84757488983249,222.02729812537808 43.450310562001846,228.6496001464841 41.40955738447495,235.3851153502725 C 40.10809379565481,239.88291956655743 39.89230708662764,244.6976605117262 39.11682360106124,249.8900281976925 C 38.557126824522015,249.06059803486923 38.307623442209334,248.72343130201432 38.09858006783928,248.36603456518807 C 29.37944835621013,233.46326497299907 24.20056733955801,217.29274846527542 23.546463877819402,200.17142177090074 C 22.784467061567202,180.2246378552016 23.411597184677422,160.2239072622456 23.586923885762,140.24340667326098 C 23.627383893704593,135.71862911834745 24.261257351471915,131.19385156343398 24.740034112125944,125.67780381392691 C 23.256500487564143,127.64685753379982 22.29894696625607,128.8404277681064 21.42905679549028,130.08794467966973 C 9.493354452424864,147.12160802350203 2.925346496410331,166.19175843377832 0.7539927368244186,186.73195579930223 C -2.024261141900414,213.03096096198877 2.5544630902698806,237.48903576328718 19.864603155043287,258.5484698974077 C 27.64641134933566,268.0295984252891 37.30960991295868,275.04940980332924 48.287758734716036,280.96331429760517 C 50.68838587264331,264.25333101731354 59.25242088715919,251.96697527207897 73.01556692229846,243.3422502456492 L 101.82309257742585,267.9284484054326 C 89.51650682821997,269.4861587112225 77.1964344096999,268.79159524154124 73.24484030063984,266.2493580758149 C 68.78075275764022,271.7991224986075 66.96005240022346,278.21877709216585 66.46778897025521,285.1778984582921 C 66.31943560779904,287.2008988554218 66.84541571105278,288.34726574712863 69.06397281323837,288.5495657868417 C 77.10202772450052,289.1901825792661 85.14682597041974,290.62651286122815 93.15790754305347,290.4646728294578 C 123.96820359133932,289.8577727103189 151.8653790677583,278.7919605380192 179.00055772792513,265.39295457436333 C 180.828001419999,264.489347730312 182.02831498896265,264.4488877223694 183.84227201172232,265.34575123176364 C 206.76960984585926,276.6880401250043 230.5196345081623,285.75108190414556 256.03641285062537,289.3722526150077 C 268.9094387110275,291.19969630708164 281.7757212367727,291.1524929644819 294.5341104080042,288.36075241644284 C 295.4579472560268,288.1584523767299 296.90776420730305,287.05254549296563 296.89427753798884,286.3916986965699 C 296.7122075022471,278.97403057376084 294.7498971170313,272.0890858888627 290.50159628305886,266.3977114382711 C 280.6495843490371,269.6075387350503 271.1684558211557,269.0950453011107 261.78847731313084,268.1644651184311 C 270.95266911212855,260.2140735577112 279.8875875327849,252.40529202479047 288.9169126386406,244.7111471810403 C 289.7704963246789,244.21591205267157 290.81130697545467,244.16563134490463 291.7086531866796,244.57628048789832 C 301.49323177413044,250.60482167134492 308.6479098453126,258.86540662629136 312.41069058397386,269.8165821094204 C 313.6312341569088,273.36357613905443 314.4336909811036,277.0589235311447 315.4249611756972,280.7542709232351 C 315.7750125779662,280.65245483913685 316.11751117558106,280.5262711452788 316.4499480435763,280.3766441824376 C 318.23693172770754,279.4325773304437 320.0576320851243,278.5424571557066 321.78392575734165,277.49724028385623 C 349.229297811735,260.8749203541069 361.56960023422647,235.54695538204268 363.52516728478514,204.4264659395303 C 364.75919752703425,184.810105422029 360.5041533584047,166.18501509912124 352.4121517698858,148.49724829355029 M 98.84928199364514,63.90211502024199 C 116.65842882304389,48.594745348627015 137.1177061726826,45.15564467350647 159.26956052125317,53.53760965228066 C 162.31080445160484,54.68397654398751 165.23066835812878,56.14728016457802 168.16401893396687,57.58361044654013 C 177.49679409939202,62.10164466679653 186.64075589441842,61.62961124079958 196.08816774901427,57.495947095997835 C 203.1416958003399,54.43447316167484 210.44472723397828,50.995372486554295 217.92982870335825,50.07827897318882 C 243.93887047578954,46.82799166846704 264.1014411005159,57.179010367114174 278.4512572508227,78.8790612936591 C 297.4809476531565,107.6461269408439 292.6931800466161,159.0303370279391 252.1522520881362,180.58877792668497 C 244.21859730530463,184.8840550370175 235.3598425641201,187.18668329393455 226.33876702076088,187.29839591049856 C 211.63155413362767,187.44674927295475 196.92434124649458,187.33885591844117 182.21712835936142,187.33885591844117 L 182.21712835936142,187.41303259966926 C 168.05612557945327,187.41303259966926 153.89512279954516,187.70973932458162 139.7880666968938,187.35234258775537 C 111.64813117281923,186.63080577944578 87.6688331321748,168.74748226881894 78.5046413331771,142.09108036930618 C 68.67960273778372,113.49934142320592 76.05681085265016,83.53870554171459 98.84928199364514,63.90211502024199 M 133.80672885604693,259.9106234981418 C 133.0607329302698,260.04205356242545 132.29296975920627,259.87493791951255 131.66909176974653,259.4453334068019 C 101.14875911171595,238.87141936799256 74.38446385768958,214.5819279331216 57.10804046620167,181.43843809347945 C 43.081904379435514,154.5190461423398 40.748710588079234,126.51397731140722 50.98509259755568,97.71319499093691 C 51.288542657125134,96.85679148948532 51.659426063265585,96.02736132666215 52.00333613077764,95.19118782918184 C 52.00333613077764,102.03567250613744 51.78754942175047,108.88690051775014 52.04379613872024,115.71789852539152 C 52.88671297085763,137.80231952739112 60.992201228690746,157.526573399406 72.7188601973861,175.80775365480167 C 91.60019723726361,205.24915276769636 116.00432536130529,229.24868081231213 145.16250441860183,248.48067125435873 C 147.56313155652913,250.06535489877706 149.936785355828,251.71072855510928 152.68806589592444,253.58537558978273 C 146.059367927996,255.8174193612826 139.94990672866422,257.92133977429756 133.80672885604693,259.9106234981418 M 180.33573799003076,242.05427332614332 C 158.09250823880228,230.36207149468072 137.29588309451455,216.10385641044834 118.37123582594697,199.57126498641895 C 118.10355218605258,199.1444733997721 117.87772544561795,198.6928199189028 117.69690236023717,198.2225980549991 C 134.62941568421303,204.2241658998173 150.98874556233548,209.8615936731522 167.21320874731592,215.8901348565988 C 171.68403962497263,217.55573851690227 175.6760937419753,220.47560242342618 179.98508458786165,222.6334695136979 C 180.98309811711232,223.1392196129803 182.68241845070128,223.40220966460714 183.51859194818158,222.8964595653247 C 199.27776504182216,213.45579104538598 216.44629507879648,207.70372658288042 234.04639853382523,202.99687899222528 C 237.48549920894578,202.0730421442027 240.83019319886688,200.81203856332516 244.22209053138772,199.712875014218 L 244.89642399709766,200.38720847992792 C 236.0154522536981,207.21820648756932 227.45816057383936,214.48077791326511 218.2130487589565,220.73184914039595 C 207.1809532599423,228.19672060580461 195.59590431904604,234.84564857770437 184.17943874457725,241.72384992794545 C 183.1611952113553,242.33075004708442 181.30003484599595,242.57351009473993 180.3289946553737,242.05427332614332 L 180.33573799003076,242.05427332614332 M 301.11560503333294,191.43880338995743 C 287.78403241624795,212.75448424104775 270.4199456742178,230.2466943415628 250.70243513685995,245.55406401317776 C 244.86270732381212,250.09232823740544 238.79370613242298,254.32039906740656 232.69773160240536,258.5282398934365 C 231.44464855674784,259.3011228799384 229.93556819689272,259.543740301137 228.50337744568975,259.2025733591464 C 222.8592063376978,257.4560496829577 217.30944191490516,255.39933261254248 211.13929070365953,253.25495219158495 C 216.31817172031162,249.67424148866527 220.9913026376813,246.4711575265433 225.64420355107973,243.22761355647853 C 251.88926203650936,224.93968996642576 274.31759310602104,202.8957289723688 291.391716457796,175.7066036349452 C 305.25601251279176,153.62892596760273 313.2401207467971,129.85192796667127 311.6217204290933,103.38433943755726 C 311.5070837399226,101.5906124187689 311.37896038143776,99.80362873463764 311.1834036763819,97.98967171187797 C 311.00807697529734,96.3375547208887 310.73834358901337,94.69218106455652 310.50907021067195,93.04680740822432 L 311.32501370418095,92.81079069522586 C 313.0378207070841,98.52913848444591 315.17545779338457,104.15307958846655 316.40274470097654,109.97257739754308 C 322.55266590825096,139.20493313606772 316.8680347923164,166.23896177637806 301.10886169867575,191.43880338995743 L 301.11560503333294,191.43880338995743"
                 class="c1"
                 id="i1" />
            </g>
            <g
               id="g3">
              <path
                 style="stroke: none; stroke-width: 1; stroke-dasharray: none; stroke-linecap: butt; stroke-dashoffset: 0; stroke-linejoin: miter; stroke-miterlimit: 4;  fill-rule: nonzero; opacity: 1"
                 d="M 319.0663618905308,298.4420377288061 C 315.5733145381534,299.864881341454 314.44043431576074,301.8541650652983 313.6716941648515,305.3404690830185 C 309.3154999763655,324.6129195330077 298.0271577603815,338.38280890280413 279.617854146501,345.80047702561313 C 268.6059886514581,350.2510778992986 257.0546563838474,350.09598120218527 245.4358907696656,348.7001109281657 C 243.76327654710911,348.5600420361357 242.09757179826636,349.0400722231221 240.75601651763878,350.0487778595855 C 233.63505511974213,355.9694256885185 226.0690336344769,361.13482003585654 217.45105194270428,364.6143807189196 C 202.87870574871306,370.487825205253 187.69945943558304,371.89718214858664 172.1763030549409,370.58223189045236 C 153.63213274791832,369.0110349153482 137.04352949145454,362.61835366041834 122.94996005811737,350.26456456861274 C 120.92695966098765,348.4910675537957 119.13997597685639,348.1943608288833 116.59773881113003,348.5450142310525 C 106.05116340742701,350.0150611863001 95.48435799975273,350.0218045209573 85.34238267547568,346.32645712886693 C 64.89659199515118,338.90878900605793 53.25759637699812,323.7902327048417 48.7463054913988,302.8656652638632 C 48.28101540005896,300.71454150824854 47.3032318747796,299.73001464831214 45.37463816284925,298.9545311627457 C 30.181905180404957,292.8855299713565 18.010186124341065,282.8716780055643 7.895184138692404,270.1739788462467 C 7.416407378038365,269.56707872710774 6.849967266842043,269.0208686198828 5.919387084162366,268.016111755975 C 32.48812563313281,353.9733986300173 108.4517905453543,403.96173844309294 192.1298303052971,399.7538976170631 C 283.54247491693263,395.1954033888641 339.86280597302436,330.0345605973154 357.07179601794127,267.8677583935187 C 346.6061406301235,281.82646113371385 334.39396156611696,292.19770983633236 319.0663618905308,298.4420377288061"
                 class="c2"
                 id="i2" />
            </g>
            <g
               id="g4">
              <path
                 style="stroke: none; stroke-width: 1; stroke-dasharray: none; stroke-linecap: butt; stroke-dashoffset: 0; stroke-linejoin: miter; stroke-miterlimit: 4;  fill-rule: nonzero; opacity: 1"
                 d="M 291.16244307945453,314.4169975314738 C 292.7606133931871,311.96916705094685 293.7856002610661,309.14370982962237 295.33656723219895,305.9541125368144 C 293.9541836274936,306.06200589132806 293.4147168549257,306.0485192220138 292.88873675167196,306.14966924187036 C 278.8221406569632,308.89420644730967 264.721827888969,308.24010298557107 250.67546179823148,306.1901292498129 C 227.01984382112784,302.74428524003525 204.82078612995755,294.72646033274447 183.57253862543828,283.9910715586426 C 182.2328932986382,283.4274621697 180.72680808870794,283.40570491947625 179.37144113406558,283.93038154672877 C 175.04222028420793,285.7578252388026 170.9018128047491,288.04381568755923 166.60630862817695,289.95217939551827 C 135.4386158430649,303.7962454465428 103.26616619404504,311.72640700329134 68.04572928001639,305.9675992061287 C 73.56852036418056,318.9485184210444 82.01117535486866,327.5462701088458 95.18090794018322,330.9179374373954 C 102.16025931028078,332.7251511254979 109.19355735763514,332.40821439661426 116.21336873567535,331.08652080382285 C 135.45884584703617,327.45186342364644 153.4163460388911,320.25672534452167 170.7534594422929,311.35552359715086 C 174.52972685026842,309.41344321590634 178.23181757701582,305.718095823816 181.95413830773452,305.7383258277873 C 185.6764590384532,305.7585558317586 189.37180643054356,309.5213365704199 193.14133050386192,311.43644361303603 C 211.4292540939147,320.66132542394763 230.03411441285112,329.09723707997864 250.62151512097472,331.70690759227597 C 267.37870174386603,333.8310580092622 281.5194745198029,329.1849004305209 291.16244307945453,314.4169975314738"
                 class="c2"
                 id="i3" />
            </g>
            <g
               id="g5">
              <path
                 style="stroke: none; stroke-width: 1; stroke-dasharray: none; stroke-linecap: butt; stroke-dashoffset: 0; stroke-linejoin: miter; stroke-miterlimit: 4;  fill-rule: nonzero; opacity: 1"
                 d="M 173.1945465881628,329.0500337373789 C 163.86177142273763,334.3907547858014 153.5781860706615,338.07935884323456 143.78686414855358,342.4288096970635 C 156.26203326418693,357.37203929719516 205.50860626498172,357.635029348822 220.78900259796828,342.4288096970635 C 219.58194569434752,341.97700627503787 218.44232213729782,341.5926361995832 217.33641525353354,341.12060277358626 C 208.29360347836362,337.222955341783 198.8731649623962,333.9794113717183 190.3630766251371,329.16467042654955 C 184.09851872869206,325.651393070201 179.5804845084357,325.3951463532312 173.1945465881628,329.0500337373789"
                 class="c3"
                 id="i4" />
            </g>
            <g
               id="g6">
              <path
                 style="stroke: none; stroke-width: 1; stroke-dasharray: none; stroke-linecap: butt; stroke-dashoffset: 0; stroke-linejoin: miter; stroke-miterlimit: 4;  fill-rule: nonzero; opacity: 1"
                 d="M 143.33506072652796,173.04298644539108 C 156.14739657501624,172.6248996966509 168.95973242350453,172.97555309882006 181.73160826405027,172.97555309882006 L 181.73160826405027,172.90811975224904 C 195.42732095261852,172.90811975224904 209.12303364118682,172.94183642553455 222.82548966441223,172.90811975224904 C 233.36720667492935,173.00227985487209 243.6352721998498,169.5542615518692 251.98366872170874,163.11679783014114 C 271.3769666135173,148.00720731480433 279.1215732648315,122.30268213248442 271.30332251429775,98.9944285757857 C 265.1466579723662,80.98298170667398 253.04911559753043,69.13494271415085 234.15429188833875,65.02825190797749 C 223.25031974780947,62.66134144333571 212.91953105313365,64.82595186826453 203.34399584005294,70.3352562831145 C 195.95523364060188,74.69918551486342 187.42164203056038,76.73211218594187 178.85894770012607,76.16824076150525 C 171.81216298345748,75.74341067810799 165.6487551068689,73.03259014595415 159.5190639035658,69.86322285711758 C 141.46041369185437,60.53719102634951 122.31608660035002,62.8501548137345 107.29868031899031,76.19521410013364 C 96.8465116004867,85.4875292576162 91.55299389466391,97.37602825808194 89.68509019464744,111.15940429719252 C 85.45027602998918,142.40801709818982 111.12215106956549,174.1016899865556 143.33506072652796,173.04298644539108 M 114.68263176851383,87.94210307280032 C 124.85832376607638,76.90326423912907 139.26882992829718,74.5363537744873 152.85664926235188,80.94926503338854 C 156.90265005661135,82.85088540669048 160.81378415772883,85.19756586736098 164.99465164513026,86.70132949589409 C 178.447604286043,91.52281377571994 191.66454021395725,90.55851691975477 204.51733607038815,84.3411623659094 C 208.24640013576396,82.54069201246394 211.88780085059747,80.43002826479191 215.78544828240078,79.1015913373434 C 229.8790177157379,74.28685039217463 244.42439057110067,79.99845484673757 253.6155557087268,93.65370752736327 C 267.95862852437654,114.96938837845354 258.7404900481221,147.8701181704401 235.4085521345592,157.37147670229274 C 230.47243116556265,159.39447709942246 224.73385337237127,159.974403879933 219.3324423120349,160.14973058101756 C 206.99888322420063,160.54084399112932 194.63835079773798,160.27111060484535 182.29804837524662,160.27111060484535 L 182.29804837524662,160.23739393155986 C 169.61383588524316,160.23739393155986 156.92962339523976,160.33854395141634 144.25215423989343,160.23739393155986 C 126.3216273866669,160.06881056513237 113.43511485695052,151.55197889321622 106.63109018793752,135.21962235372217 C 99.51012879004084,118.07806565537624 101.91749926262521,101.79965579313898 114.68263176851383,87.94210307280032"
                 class="c4"
                 id="i5" />
            </g>
            <g
               id="g7">
              <path
                 style="stroke: none; stroke-width: 1; stroke-dasharray: none; stroke-linecap: butt; stroke-dashoffset: 0; stroke-linejoin: miter; stroke-miterlimit: 4;  fill-rule: nonzero; opacity: 1"
                 d="M 139.28231659761138,123.02767329368697 C 147.71148491898526,123.02767329368697 155.91812319667488,115.2526084340517 156.05973322447394,107.19432351881827 C 156.13747476467987,102.70593046315115 154.40964677030382,98.37430203401652 151.26405291135964,95.17165387291497 C 148.11845905241546,91.96900571181341 143.81858524494652,90.16360280218926 139.32951994021107,90.16066017498594 C 130.0237181134143,90.10671349772912 122.75440335306146,97.38277159273908 122.68022667183337,106.83018344733492 C 122.60604999060527,115.272838438023 130.5969015592677,123.06813330162956 139.28231659761138,123.02767329368697"
                 class="c5"
                 id="i6" />
            </g>
            <g
               id="g8">
              <path
                 style="stroke: none; stroke-width: 1; stroke-dasharray: none; stroke-linecap: butt; stroke-dashoffset: 0; stroke-linejoin: miter; stroke-miterlimit: 4;  fill-rule: nonzero; opacity: 1"
                 d="M 223.8235031936629,122.97372661643018 C 232.42125488146428,122.97372661643018 240.3986197808125,115.41444846582208 240.4727964620406,107.17409351484696 C 240.5469731432687,97.73342499490822 233.36532173345816,90.2415801908711 224.14043992254653,90.19437684827142 C 219.82211393219902,90.09863736975441 215.64359638485158,91.72736750135998 212.52918830067532,94.720287094646 C 209.4147802164991,97.71320668793197 207.6211640789048,101.8236460666422 207.54509333142565,106.14236331231079 C 207.3562799610269,115.03682172502452 215.00996479683437,122.96023994711598 223.8235031936629,122.97372661643018"
                 class="c1"
                 id="i7" />
            </g>
            <g
               id="g9">
              <path
                 style="stroke: none; stroke-width: 1; stroke-dasharray: none; stroke-linecap: butt; stroke-dashoffset: 0; stroke-linejoin: miter; stroke-miterlimit: 4;  fill-rule: nonzero; opacity: 1"
                 d="M 151.82491905981573,134.9431456327811 C 145.2299377651728,134.79479227032493 138.60798313190148,134.8824556208672 132.01974517191564,135.29379903495027 C 128.23673442928305,135.52307241329163 126.2339640361246,139.02960643498315 127.36684425851726,142.65077714584538 C 128.4188044650247,146.02244447439494 130.886864949523,147.81617149318328 134.33945229395772,148.04544487152467 C 137.13119284199675,148.21402823795216 139.93642005934998,148.07916154481018 142.73490394204612,148.07916154481018 L 142.73490394204612,148.14659489138117 C 145.64802451391293,148.14659489138117 148.56788842043684,148.28146158452313 151.50123899627494,148.10613488343856 C 155.0212596872807,147.8970915090685 157.9748402670901,144.8558475787168 158.10296362557497,141.61904694330923 C 158.1939902893071,138.04907542063677 155.39374799523895,135.07137416271252 151.82491905981573,134.9431456327811"
                 class="c4"
                 id="i8" />
            </g>
            <g
               id="g10">
              <path
                 style="stroke: none; stroke-width: 1; stroke-dasharray: none; stroke-linecap: butt; stroke-dashoffset: 0; stroke-linejoin: miter; stroke-miterlimit: 4;  fill-rule: nonzero; opacity: 1"
                 d="M 211.69224414554162,147.99824152892498 C 217.8380459714578,148.26801328810248 223.9935457572383,148.22750177214485 230.13526443270763,147.8768615050972 C 233.80363848616963,147.66107479607 236.70327238872227,144.0196740812365 236.57514903023738,140.8300767884286 C 236.44702567175247,137.64047949562075 233.31811839085853,134.92965896346692 229.29234760057034,134.80153560498204 C 226.59501373773068,134.71387225443974 223.89767987489108,134.80153560498204 221.24080601999398,134.80153560498204 L 221.24080601999398,134.86222561689593 C 218.2130487589565,134.86222561689593 215.17180482860482,134.73410225841104 212.1777642408528,134.86222561689593 C 208.44195684081987,135.0645256566089 205.91320634440774,137.62024949164947 205.81879965920837,140.96494348157063 C 205.72439297400894,144.52542418051894 208.15873678522172,147.84988816646882 211.69224414554162,147.99824152892498"
                 class="c1"
                 id="i9" />
            </g>
            <g
               id="g11">
              <path
                 style="stroke: none; stroke-width: 1; stroke-dasharray: none; stroke-linecap: butt; stroke-dashoffset: 0; stroke-linejoin: miter; stroke-miterlimit: 4;  fill-rule: nonzero; opacity: 1"
                 d="M 174.9950169416082,140.50639672488788 C 179.3521454426587,140.8143357730031 183.72517234871924,140.8256006542655 188.08382951103766,140.54011339817336 C 191.4857875478125,140.20498790862396 194.04847275548272,137.29472010956863 193.9505306627138,133.87769875695946 C 193.79543396560052,130.3441913966395 191.14530344536058,127.86264424282706 187.294859356157,127.72103421502797 C 185.50113233736863,127.66034420311408 183.70740531858027,127.72103421502797 181.90019163047774,127.72103421502797 L 181.90019163047774,127.80195423091317 C 179.7760412134915,127.80195423091317 177.63840412719108,127.69406087639959 175.52099704486199,127.80195423091317 C 172.2100197282263,128.01099760528325 169.99820596069782,130.35093473129663 169.74870257838515,133.67539871724648 C 169.52617253470086,136.83127933676886 171.89308299934262,140.2973533505178 174.9950169416082,140.50639672488788"
                 class="c4"
                 id="i10" />
            </g>
          </g>
        </g>
  </g>
</svg>
