<svg xmlns="http://www.w3.org/2000/svg" id="Layer_1" data-name="Layer 1" viewBox="0 0 220 65"><defs><style>      .cls-1 {        fill: #6038fb;      }      .cls-2 {        fill: #00ff40;      }      .cls-3 {        fill: #fff;      }    </style></defs><path class="cls-1" d="M68.51,23.78c-.34-2.39-1.26-7.32-3.92-11.07-3.75-5.26-9.58-4.74-12.85-2.41-1.53,1.09-2.2,2.33-2.53,3.33-.91,2.79.5,5.84.5,5.84,0,0,3.93-3.7,6.06-.22,1.28,2.08-.34,4.75-3.16,4.63-.78-.03-1.54-.18-2.21-.58-1.23-.74-2.7-1.6-4.09-2.6-15.84-11.4-27.64-4.03-28.04-3.79.31-.1,6.01-1.23,10.93,4.25-.25-.1-13.18-5.17-23.32,1.32,0,0,8.95-3.33,20.47,3.23-.43-.22-3.24-1.39-10.91.02.2-.03,1-.14,2.2-.14,2.58,0,6.98.51,11.19,3.41,2.28,1.57,2.41,1.96,6.34,5.03,1.41,1.1,2.95,2.01,4.62,2.63,5.72,2.14,11.28.76,15.54-3.42-2.2,4.59-6.31,11-13.09,10.09,0,0,5.2,5.5,13.14-1.21-.11.16-3.8,5.14-12.12,5.97,0,0,6.43,3.65,13.25-.25-2.07,1.93-4.72,4.25-5.75,8.55,0,0,13.83-7.34,17.27-21.76.78-3.25,1.02-6.87.47-10.84Z"></path><circle class="cls-2" cx="47.39" cy="25.6" r="2.65"></circle><g><path d="M98.33,21.2c.58.61,1.12,1.24,1.61,1.91,2.04,2.75,3.06,5.87,3.06,9.36s-1.02,6.61-3.06,9.36c-.48.67-1.02,1.29-1.61,1.88-1.45,1.45-3.14,2.6-5.07,3.42s-3.98,1.24-6.16,1.24h-11.24v-31.8h11.24c2.18,0,4.23.41,6.16,1.23,1.93.82,3.62,1.95,5.07,3.41h0ZM87.09,41.83c2.58,0,4.79-.91,6.62-2.74s2.74-4.03,2.74-6.62-.92-4.79-2.76-6.63c-1.82-1.82-4.02-2.73-6.6-2.73h-4.69v18.72h4.69Z"></path><path d="M122.4,30.02c1.7,1.68,2.73,3.73,3.09,6.18.06.46.09.94.09,1.42s-.03.93-.09,1.39h-15.63c.24.87.68,1.61,1.3,2.24,1.01,1.01,2.22,1.51,3.63,1.51,1.7,0,3.07-.7,4.12-2.09l4.24,3.73c-.24.28-.49.56-.76.82-.97.99-2.1,1.76-3.41,2.32-1.3.55-2.7.83-4.19.83s-2.86-.28-4.16-.83c-1.3-.55-2.45-1.33-3.44-2.32-1.68-1.68-2.7-3.75-3.06-6.21-.06-.46-.09-.93-.09-1.39s.03-.96.09-1.42c.4-2.69,1.6-4.92,3.59-6.69,1.99-1.78,4.35-2.67,7.07-2.67,1.49,0,2.89.28,4.19.85,1.3.57,2.44,1.34,3.41,2.33h0ZM109.87,36.19h9.9c-.26-.87-.71-1.61-1.33-2.21-.99-1.01-2.2-1.51-3.63-1.51s-2.63.51-3.63,1.51c-.63.61-1.06,1.34-1.3,2.21h0Z"></path><path d="M137.09,32.47c-1.41,0-2.63.51-3.63,1.51-1.01.99-1.51,2.2-1.51,3.63s.5,2.63,1.51,3.63c1.01,1.01,2.22,1.51,3.63,1.51,1.57,0,2.89-.62,3.94-1.85l3.82,4.15c-.04.06-.09.11-.15.15-.97.99-2.1,1.76-3.41,2.32-1.3.55-2.7.83-4.19.83s-2.86-.28-4.16-.83c-1.3-.55-2.45-1.33-3.44-2.32s-1.76-2.14-2.32-3.44c-.55-1.3-.83-2.69-.83-4.16,0-1.98.48-3.79,1.45-5.42.97-1.64,2.27-2.94,3.89-3.91,1.63-.97,3.43-1.45,5.41-1.45,1.49,0,2.89.28,4.19.85,1.3.57,2.44,1.34,3.41,2.33.06.04.11.08.15.12l-3.82,4.15c-.08-.1-.18-.2-.3-.3-.99-1.01-2.2-1.51-3.63-1.51h0Z"></path><path d="M161.2,34.74c2.1,4.08,4.28,8.31,6.54,12.69l.48.94h-6.33l-4.39-8.54-6.18,8.54h-5.12v-29.01l5.6-2.79c.02,7.17.02,14.35,0,21.53l8.15-11.27h6.94l-5.69,7.9h0Z"></path><path d="M169.59,48.37v-29.01l5.6-2.79v31.8h-5.6Z"></path><path d="M192.42,28.29c1.64.97,2.94,2.27,3.91,3.91.97,1.64,1.45,3.44,1.45,5.42,0,.14-.01.29-.03.45h.03v10.3h-5.63v-6.54h-.94c0,1.86-.22,3.26-.67,4.19-.44.94-.99,1.57-1.64,1.88-.65.31-1.28.47-1.91.47-1.98,0-3.78-.48-5.41-1.45-1.63-.97-2.92-2.27-3.89-3.89s-1.45-3.43-1.45-5.41.48-3.79,1.45-5.42c.97-1.64,2.27-2.94,3.89-3.91,1.63-.97,3.43-1.45,5.41-1.45s3.79.48,5.42,1.45h0ZM192.15,37.62c0-1.43-.5-2.65-1.5-3.65-1-1-2.22-1.5-3.65-1.5s-2.63.5-3.63,1.5c-1.01,1-1.51,2.22-1.51,3.65s.5,2.63,1.51,3.63c1.01,1.01,2.22,1.51,3.63,1.51s2.65-.5,3.65-1.51c1-1.01,1.5-2.22,1.5-3.63h0Z"></path><path d="M204.75,28.17c1.57-.89,3.29-1.33,5.15-1.33h4.21v5.63h-4.21c-1.41,0-2.63.51-3.63,1.51-1.01.99-1.51,2.2-1.51,3.63v10.75h-5.6v-10.75c0-1.88.43-3.59,1.3-5.15,1.03-1.86,2.46-3.29,4.3-4.3h0Z"></path></g><path class="cls-3" d="M53.45,28.79c-1.21,2.25-3.51,3.64-6.08,3.64-3.81,0-6.91-3.1-6.91-6.91,0-1.73.6-3.28,1.34-4.39l2.02,1.43c-.82,1.17-.89,2.27-.89,2.96,0,2.45,1.99,4.44,4.44,4.44,1.62,0,3.12-.9,3.9-2.31l2.18,1.14h0Z"></path></svg>