 <svg
            width="158"
            height="40"
            viewBox="0 0 158 40"
            fill="none"
            xmlns="http://www.w3.org/2000/svg"
          >
            <path
              d="M37.8146 12.3924L20.4081 0.339785C19.7536 -0.113262 18.8883 -0.113262 18.2338 0.339785L0.827225 12.3924C0.309021 12.7517 0 13.3414 0 13.9725V26.0251C0 26.6562 0.309021 27.246 0.827225 27.6052L18.2338 39.6578C18.5603 39.8836 18.9406 39.998 19.3209 39.998C19.7013 39.998 20.0816 39.8836 20.4081 39.6578L37.8146 27.6052C38.3313 27.246 38.6403 26.6562 38.6403 26.0251V13.9725C38.6403 13.3414 38.3313 12.7517 37.8146 12.3924ZM34.8116 22.3658L31.3934 19.9988L34.8116 17.6318V22.3658ZM28.0242 17.6652L21.2353 12.9647V5.57763L33.3568 13.9725L28.0242 17.6652ZM19.3209 23.6931L13.9868 19.9988L19.3209 16.3045L24.6551 19.9988L19.3209 23.6931ZM17.4066 5.57763V12.9647L10.6176 17.6652L5.28505 13.9725L17.4066 5.57763ZM3.82869 17.6318L7.24694 19.9988L3.82869 22.3658V17.6303V17.6318ZM10.6176 22.3324L17.4066 27.0329V34.42L5.28505 26.0251L10.6176 22.3324ZM21.2353 34.42V27.0329L28.0242 22.3324L33.3568 26.0251L21.2353 34.42Z"
              fill="#00E63D"
            />
            <path
              d="M54.8847 11.2335H58.1699L60.249 17.2137L62.3535 11.2335H65.6133L62.5089 19.463L64.7924 25.2636L69.9507 11.1826H73.8L66.5119 29.3267H63.4581L60.2506 21.7108L57.0685 29.3267H54.0147L46.752 11.1826H50.5505L55.7088 25.2636L57.9924 19.463L54.8879 11.2335H54.8847Z"
              fill="#00E63D"
            />
            <path
              d="M72.3516 25.4155C72.3516 24.5571 72.594 23.8084 73.0774 23.1678C73.5607 22.5288 74.2326 22.028 75.09 21.6656C75.9473 21.3032 76.9457 21.1219 78.0835 21.1219C78.6445 21.1219 79.2134 21.1649 79.7902 21.2491C80.3671 21.3349 80.8679 21.4701 81.2926 21.6576V20.92C81.2926 20.1014 81.0469 19.4655 80.5541 19.0125C80.0612 18.561 79.3228 18.3353 78.3371 18.3353C77.5891 18.3353 76.8855 18.4625 76.223 18.7184C75.5606 18.9743 74.8633 19.3399 74.1344 19.8168L73.0647 17.5929C73.9315 16.9968 74.8269 16.5581 75.7524 16.2767C76.6779 15.9954 77.6509 15.8555 78.6699 15.8555C80.5715 15.8555 82.0532 16.3212 83.115 17.2543C84.1768 18.1859 84.7076 19.5339 84.7076 21.2984V25.5061C84.7076 25.859 84.771 26.1118 84.8994 26.2612C85.0262 26.4122 85.5872 26.5044 85.8772 26.5378V29.3229C85.5713 29.3737 84.9422 29.4166 84.6966 29.45C84.4509 29.4834 84.2417 29.493 84.0722 29.4755C83.3923 29.4755 82.8789 29.326 82.5302 29.0288C82.1816 28.7315 81.974 28.3595 81.9059 27.9176L81.8298 27.2277C81.2355 27.978 80.505 28.5567 79.6381 28.9652C78.7713 29.3737 77.8886 29.5788 76.9885 29.5788C76.0883 29.5788 75.3118 29.3928 74.6066 29.024C73.9014 28.6536 73.3499 28.1529 72.9506 27.5218C72.5512 26.8907 72.3516 26.1881 72.3516 25.4124V25.4155ZM80.6571 26.0562C80.8441 25.8908 80.9962 25.6985 81.1151 25.4839C81.2339 25.2677 81.2926 25.0849 81.2926 24.9355V23.6145C80.8853 23.4492 80.4432 23.3204 79.9677 23.2282C79.4923 23.136 79.0423 23.0915 78.6176 23.0915C77.7349 23.0915 77.0075 23.2791 76.4386 23.6526C75.8696 24.0262 75.5844 24.5206 75.5844 25.1358C75.5844 25.468 75.6779 25.7875 75.8649 26.0959C76.0519 26.4027 76.3197 26.6475 76.6668 26.8303C77.0154 27.0131 77.4433 27.1037 77.9536 27.1037C78.4638 27.1037 78.9646 27.0036 79.4575 26.8049C79.9503 26.6062 80.3497 26.3566 80.6555 26.0577L80.6571 26.0562Z"
              fill="#00E63D"
            />
            <path
              d="M95.5005 15.7686C95.399 15.7781 95.2628 15.7733 95.0932 15.7559C94.5829 15.7877 94.0853 15.9148 93.6035 16.1326C93.3183 16.2645 93.0378 16.4283 92.7621 16.6254C92.0236 17.1531 91.4166 17.878 90.9412 18.7968V16.0627H87.8066V29.3266H91.1948V21.2004C91.5688 20.4501 92.163 19.8841 92.9792 19.501C93.1804 19.4057 93.388 19.323 93.6035 19.2499C94.1931 19.0528 94.8365 18.9383 95.5353 18.9081V15.767C95.5242 15.767 95.5131 15.767 95.5005 15.7686Z"
              fill="#00E63D"
            />
            <path
              d="M103.757 29.5827C102.723 29.5827 101.786 29.4015 100.949 29.039C100.111 28.6766 99.3979 28.1791 98.8068 27.548C98.2157 26.9169 97.7641 26.1968 97.4519 25.3877C97.1397 24.5785 96.9844 23.7122 96.9844 22.7838C96.9844 21.5376 97.2585 20.3867 97.81 19.3343C98.3599 18.2804 99.1396 17.4379 100.151 16.8068C101.16 16.1757 102.371 15.8594 103.784 15.8594C105.198 15.8594 106.379 16.1757 107.382 16.8084C108.383 17.4411 109.155 18.2724 109.697 19.3009C110.239 20.331 110.51 21.4517 110.51 22.6662C110.51 22.8856 110.502 23.0922 110.485 23.2862C110.469 23.4801 110.451 23.6454 110.435 23.7789H100.483C100.533 24.4784 100.718 25.0745 101.038 25.5657C101.358 26.0569 101.769 26.4352 102.269 26.7023C102.77 26.9693 103.299 27.1013 103.859 27.1013C104.532 27.1013 105.16 26.936 105.743 26.6037C106.326 26.2715 106.724 25.8248 106.938 25.2621L109.746 26.0791C109.45 26.7611 109.016 27.3652 108.44 27.8929C107.865 28.4207 107.184 28.834 106.396 29.1328C105.608 29.4301 104.729 29.5795 103.761 29.5795L103.757 29.5827ZM100.382 21.6345H107.131C107.065 20.9685 106.881 20.3898 106.577 19.8986C106.272 19.4074 105.875 19.0243 105.382 18.7493C104.889 18.4743 104.339 18.3376 103.731 18.3376C103.122 18.3376 102.601 18.4743 102.117 18.7493C101.632 19.0243 101.238 19.4074 100.935 19.8986C100.631 20.3898 100.447 20.9685 100.38 21.6345H100.382Z"
              fill="#00E63D"
            />
            <path
              d="M113.714 29.3269V19.2582H111.957V16.6257H113.714V15.8341C113.714 14.7261 113.897 13.7692 114.263 12.9585C114.627 12.1493 115.142 11.523 115.805 11.0795C116.467 10.636 117.248 10.415 118.149 10.415C118.71 10.415 119.266 10.4834 119.817 10.6201C120.369 10.7568 121.133 11.062 121.778 11.3482L120.955 13.8773C120.7 13.7247 120.215 13.5212 119.868 13.4433C119.519 13.367 119.201 13.3288 118.912 13.3288C118.318 13.3288 117.871 13.5291 117.575 13.9297C117.277 14.3303 117.13 14.9217 117.13 15.7053V16.6257H120.391V19.2582H117.13V29.3269H113.716H113.714Z"
              fill="#00E63D"
            />
            <path
              d="M123.227 10.6719H126.64V25.0549C126.64 25.6876 126.741 26.1104 126.946 26.325C127.15 26.5396 127.421 26.6445 127.76 26.6445C128.066 26.6445 128.359 26.6111 128.64 26.5428C128.92 26.4744 129.171 26.3807 129.391 26.2614L129.989 28.8319C129.531 29.0528 128.86 29.2865 128.258 29.4057C127.654 29.525 127.1 29.5838 126.589 29.5838C125.52 29.5838 124.691 29.2976 124.106 28.7254C123.52 28.1531 123.227 27.3456 123.227 26.3043V10.6735V10.6719Z"
              fill="#00E63D"
            />
            <path
              d="M137.244 29.5827C136.209 29.5827 135.272 29.4015 134.436 29.039C133.597 28.6766 132.884 28.1791 132.293 27.548C131.702 26.9169 131.25 26.1968 130.938 25.3877C130.626 24.5785 130.471 23.7122 130.471 22.7838C130.471 21.5376 130.745 20.3867 131.296 19.3343C131.846 18.2804 132.626 17.4379 133.637 16.8068C134.646 16.1757 135.857 15.8594 137.271 15.8594C138.684 15.8594 139.865 16.1757 140.868 16.8084C141.87 17.4411 142.641 18.2724 143.183 19.3009C143.725 20.331 143.996 21.4517 143.996 22.6662C143.996 22.8856 143.988 23.0922 143.971 23.2862C143.955 23.4801 143.938 23.6454 143.922 23.7789H133.97C134.019 24.4784 134.204 25.0745 134.524 25.5657C134.845 26.0569 135.255 26.4352 135.756 26.7023C136.257 26.9693 136.786 27.1013 137.345 27.1013C138.019 27.1013 138.646 26.936 139.229 26.6037C139.813 26.2715 140.21 25.8248 140.424 25.2621L143.232 26.0791C142.936 26.7611 142.502 27.3652 141.927 27.8929C141.351 28.4207 140.67 28.834 139.882 29.1328C139.095 29.4301 138.215 29.5795 137.247 29.5795L137.244 29.5827ZM133.868 21.6345H140.618C140.551 20.9685 140.367 20.3898 140.063 19.8986C139.759 19.4074 139.361 19.0243 138.868 18.7493C138.375 18.4743 137.825 18.3376 137.217 18.3376C136.608 18.3376 136.087 18.4743 135.604 18.7493C135.119 19.0243 134.724 19.4074 134.421 19.8986C134.117 20.3898 133.933 20.9685 133.867 21.6345H133.868Z"
              fill="#00E63D"
            />
            <path
              d="M148.166 16.0645L150.979 20.1911L151.212 20.6712L151.47 20.1911L154.283 16.0645H157.921L153.224 22.671L157.999 29.3284H154.36L151.47 25.2033L151.212 24.7725L151.006 25.2033L148.115 29.3284H144.477L149.251 22.7473L144.554 16.0645H148.167H148.166Z"
              fill="#00E63D"
            />
          </svg>