<svg xmlns="http://www.w3.org/2000/svg" viewBox="0 0 1200 630" width="1200" height="630" font-family="-apple-system, BlinkMacSystemFont, 'Segoe UI', Roboto, sans-serif"><defs><linearGradient id="hg" x1="0" y1="0" x2="1" y2="1"><stop offset="0" stop-color="#0b0b14"/><stop offset="1" stop-color="#3a1a06"/></linearGradient></defs><rect width="1200" height="630" fill="url(#hg)"/><g transform="translate(956,64) scale(6)"><path d="m23.6004 9.5927-.0337-.0862L20.3.9814a.851.851 0 0 0-.3362-.405.8748.8748 0 0 0-.9997.0539.8748.8748 0 0 0-.29.4399l-2.2055 6.748H7.5375l-2.2057-6.748a.8573.8573 0 0 0-.29-.4412.8748.8748 0 0 0-.9997-.0537.8585.8585 0 0 0-.3362.4049L.4332 9.5015l-.0325.0862a6.0657 6.0657 0 0 0 2.0119 7.0105l.0113.0087.03.0213 4.976 3.7264 2.462 1.8633 1.4995 1.1321a1.0085 1.0085 0 0 0 1.2197 0l1.4995-1.1321 2.4619-1.8633 5.006-3.7489.0125-.01a6.0682 6.0682 0 0 0 2.0094-7.003z" fill="#fc6d26"/></g><g transform="translate(80,80)"><circle cx="22" cy="22" r="22" fill="#fc6d26"/><text x="22" y="30" font-size="22" font-weight="800" fill="#fff" text-anchor="middle">A</text><text x="56" y="30" font-size="24" font-weight="700" fill="#fff">AlertMend</text><text x="228" y="30" font-size="18" fill="#8b82b8">· GitLab reliability</text></g><text x="80" y="250" font-size="60" font-weight="800" fill="#fff">GitLab Monitoring</text><text x="80" y="316" font-size="34" font-weight="700" fill="#fc6d26">Puma, Sidekiq, Gitaly, PostgreSQL.</text><g font-family="ui-monospace, SFMono-Regular, Menlo, monospace" font-size="19"><rect x="80" y="368" width="1040" height="150" rx="14" fill="#12111f" stroke="#312b57"/><text x="108" y="406" fill="#fc6d26">502</text><text x="300" y="406" fill="#e9e3ff">Puma down or mid-upgrade</text><text x="108" y="442" fill="#fc6d26">backlog</text><text x="300" y="442" fill="#e9e3ff">Sidekiq queues not draining</text><text x="108" y="478" fill="#fc6d26">slow git</text><text x="300" y="478" fill="#e9e3ff">Gitaly latency or full disk</text></g><text x="80" y="566" font-size="19" fill="#8b82b8">alertmend.io · Watch the services behind the URL, not just the URL</text></svg>
