<svg xmlns="http://www.w3.org/2000/svg" width="185" height="144" viewBox="0 0 185 144" fill="none"><path d="M87.3282 6.50391H19.2559V66.8563H87.3282V6.50391Z" fill="white"></path><path d="M86.6172 7.2147V66.1453H19.9666V7.2147H86.6172ZM88.039 5.79297H18.5449V67.567H88.039V5.79297Z" fill="#A379FF"></path><path d="M43.6387 27.0273H47.4987" stroke="#A379FF" stroke-width="3.8607"></path><path d="M51.3574 27.0273H55.2174" stroke="#A379FF" stroke-width="3.8607"></path><path d="M59.084 27.0273H62.944" stroke="#A379FF" stroke-width="3.8607"></path><path d="M66.8047 27.0273H70.6647" stroke="#A379FF" stroke-width="3.8607"></path><path d="M74.5254 27.0273H78.3854" stroke="#A379FF" stroke-width="3.8607"></path><path d="M28.1953 34.7461H32.0553" stroke="#A379FF" stroke-width="3.8607"></path><path d="M35.9182 34.748H39.7782" stroke="#A379FF" stroke-width="3.8607"></path><path d="M43.6387 34.7461H47.4987" stroke="#A379FF" stroke-width="3.8607"></path><path d="M51.3574 34.7461H55.2174" stroke="#A379FF" stroke-width="3.8607"></path><path d="M59.084 34.7461H62.944" stroke="#A379FF" stroke-width="3.8607"></path><path d="M66.8047 34.7461H70.6647" stroke="#A379FF" stroke-width="3.8607"></path><path d="M74.5254 34.7461H78.3854" stroke="#A379FF" stroke-width="3.8607"></path><path d="M28.1953 42.4668H32.0553" stroke="#A379FF" stroke-width="3.8607"></path><path d="M35.918 42.4668H39.778" stroke="#A379FF" stroke-width="3.8607"></path><path d="M43.6387 42.4668H47.4987" stroke="#A379FF" stroke-width="3.8607"></path><path d="M51.3574 42.4668H55.2174" stroke="#A379FF" stroke-width="3.8607"></path><path d="M59.084 42.4668H62.944" stroke="#A379FF" stroke-width="3.8607"></path><path d="M66.8047 42.4668H70.6647" stroke="#A379FF" stroke-width="3.8607"></path><path d="M74.5254 42.4668H78.3854" stroke="#A379FF" stroke-width="3.8607"></path><path d="M28.1953 50.1875H32.0553" stroke="#A379FF" stroke-width="3.8607"></path><path d="M35.918 50.1875H39.778" stroke="#A379FF" stroke-width="3.8607"></path><path d="M43.6387 50.1875H47.4987" stroke="#A379FF" stroke-width="3.8607"></path><path d="M51.3574 50.1875H55.2174" stroke="#A379FF" stroke-width="3.8607"></path><path d="M59.084 50.1875H62.944" stroke="#A379FF" stroke-width="3.8607"></path><path d="M66.8047 50.1875H70.6647" stroke="#A379FF" stroke-width="3.8607"></path><path d="M74.5254 50.1875H78.3854" stroke="#A379FF" stroke-width="3.8607"></path><path d="M28.1953 57.9141H32.0553" stroke="#A379FF" stroke-width="3.8607"></path><path d="M35.918 57.9141H39.778" stroke="#A379FF" stroke-width="3.8607"></path><path d="M43.6387 57.9141H47.4987" stroke="#A379FF" stroke-width="3.8607"></path><path d="M88.039 5.79297H18.5449V18.1691H88.039V5.79297Z" fill="black"></path><path d="M30.125 11.58V0" stroke="#A379FF" stroke-width="3.8607"></path><path d="M76.4609 11.58V0" stroke="#A379FF" stroke-width="3.8607"></path><path d="M95.0198 84.6783L85.1317 93.0593C85.1317 93.0593 76.9781 78.2236 74.0635 73.3968C74.0635 73.3968 75.8051 66.0678 75.599 63.8215C75.3644 61.2197 73.8289 59.0943 71.2272 51.0899C68.3766 42.325 66.3151 38.8844 66.3151 38.8844C66.3151 38.8844 65.0071 40.1426 65.1066 43.3415C65.2062 46.5404 65.6469 51.3885 65.6469 51.3885C65.6469 51.3885 58.5738 41.8914 58.2041 41.2303C57.8345 40.5691 53.2992 35.1879 52.112 35.5789C50.9249 35.9627 50.406 36.9651 51.6216 38.8702C52.8371 40.7753 58.2539 49.2914 58.2539 49.2914C58.2539 49.2914 49.3681 37.4129 47.3848 36.5243C45.5508 35.6997 44.7333 36.7447 45.1811 38.1167C45.4584 38.9555 50.7614 47.3792 52.7234 50.3293C50.7756 47.6209 45.3944 40.3488 43.9727 39.2967C41.8685 37.7328 40.4539 39.2683 41.3709 41.216C41.7121 41.9411 49.3041 53.8552 49.3041 53.8552C49.3041 53.8552 49.8302 55.938 45.8493 51.6515C41.8685 47.365 39.3094 43.8249 37.8379 44.6637C35.4494 46.0286 41.8187 55.3125 44.0864 58.0991C46.0839 60.5658 57.9625 74.7048 60.7064 77.9677C61.73 84.1522 67.9856 103.388 68.7818 104.561C73.6228 111.705 83.4896 114.165 90.6053 109.281L104.453 102.301" fill="white"></path><path d="M95.0198 84.6783L85.1317 93.0593C85.1317 93.0593 76.9781 78.2236 74.0635 73.3968C74.0635 73.3968 75.8051 66.0678 75.599 63.8215C75.3644 61.2197 73.8289 59.0943 71.2272 51.0899C68.3766 42.325 66.3151 38.8844 66.3151 38.8844C66.3151 38.8844 65.0071 40.1426 65.1066 43.3415C65.2062 46.5404 65.6469 51.3885 65.6469 51.3885C65.6469 51.3885 58.5738 41.8914 58.2041 41.2303C57.8345 40.5691 53.2992 35.1879 52.112 35.5789C50.9249 35.9627 50.406 36.9651 51.6216 38.8702C52.8371 40.7753 58.2539 49.2914 58.2539 49.2914C58.2539 49.2914 49.3681 37.4129 47.3848 36.5243C45.5508 35.6997 44.7333 36.7447 45.1811 38.1167C45.4584 38.9555 50.7614 47.3792 52.7234 50.3293C50.7756 47.6209 45.3944 40.3488 43.9727 39.2967C41.8685 37.7328 40.4539 39.2683 41.3709 41.216C41.7121 41.9411 49.3041 53.8552 49.3041 53.8552C49.3041 53.8552 49.8302 55.938 45.8493 51.6515C41.8685 47.365 39.3094 43.8249 37.8379 44.6637C35.4494 46.0286 41.8187 55.3125 44.0864 58.0991C46.0839 60.5658 57.9625 74.7048 60.7064 77.9677C61.73 84.1522 67.9856 103.388 68.7818 104.561C73.6228 111.705 83.4896 114.165 90.6053 109.281L104.453 102.301" stroke="black" stroke-width="1.42173" stroke-miterlimit="10" stroke-linecap="round" stroke-linejoin="round"></path><path d="M163.575 44.984C161.045 40.008 157.832 36.0769 154.725 33.6244C156.097 31.3212 156.907 28.6413 156.907 25.7623C156.907 17.2817 150.033 10.4005 141.546 10.4005C139.505 10.4005 137.565 10.8057 135.788 11.5237C133.015 8.78685 129.205 7.08789 124.997 7.08789C116.516 7.08789 109.635 13.9619 109.635 22.4497C109.635 25.3926 110.474 28.1295 111.91 30.4682C110.445 33.4894 108.021 38.0958 105.875 40.3634C102.519 43.9035 101.176 48.3749 103.358 51.6022C105.54 54.8366 110.069 54.2182 111.412 57.609C112.756 60.9998 115.77 68.3857 126.845 65.9261C137.913 63.4594 146.301 66.8502 150.495 62.0732C154.69 57.2962 155.862 58.0711 157.54 56.9905C159.218 55.9171 167.101 51.915 163.575 44.984Z" fill="black"></path><path d="M99.3046 109.133L86.0684 87.7003C86.0684 87.7003 104.999 67.462 105.774 67.1564C106.541 66.8507 115.064 100.624 99.3046 109.133Z" fill="#538DFF"></path><path d="M124.867 62.8499L105.773 67.1577L103.15 105.502L109.008 142.922H165.522L161.981 97.4974L168.138 71.0106L141.964 61.9258L124.867 62.8499Z" fill="#538DFF"></path><path d="M121.172 71.6973C121.172 71.6973 113.63 103.907 117.17 121.109C120.71 138.312 121.634 142.997 121.634 142.997H139.804C139.804 142.997 133.953 126.732 135.027 114.697C136.107 102.655 140.572 71.8537 140.572 71.8537C140.572 71.8537 128.259 88.2746 121.172 71.6973Z" fill="#080717"></path><path d="M47.5332 57.6161C48.9763 55.2916 55.9001 49.4696 60.1155 49.3203M51.7557 60.3529C51.7557 60.3529 56.6038 55.4551 65.7669 66.3242M64.1248 55.8958C64.1248 55.8958 60.997 59.0165 62.6391 62.8836" stroke="black" stroke-width="1.42173" stroke-miterlimit="10" stroke-linecap="round" stroke-linejoin="round"></path><path d="M53.3974 51.3021L51.2363 48.2383" stroke="black" stroke-width="1.42173" stroke-miterlimit="10" stroke-linecap="round" stroke-linejoin="round"></path><path d="M178.459 99.1875L160.289 103.04L161.832 117.67L132.473 123.712L118.1 119.056L107.181 120.684L102.191 125.177L96.3828 134.923C101.124 137.119 104.081 131.091 104.081 131.091L106.299 127.793L106.683 131.567C107.032 132.435 109.328 137.141 110.23 137.24C111.617 137.396 117.332 137.24 117.332 137.24C117.332 137.24 117.339 137.247 118.1 136.16C120.51 132.747 118.341 131.212 118.341 131.212C118.341 131.212 124.099 134.468 127.334 135.235C130.568 136.003 130.568 135.235 133.341 133.693C133.398 133.657 133.454 133.622 133.511 133.579C140.158 134.589 155.292 136.771 162.138 136.771C168.763 136.771 177.997 133.38 180.002 129.534C184.9 120.094 178.459 99.1875 178.459 99.1875Z" fill="white" stroke="black" stroke-width="1.42173" stroke-miterlimit="10" stroke-linecap="round" stroke-linejoin="round"></path><path d="M156.728 109.73C157.104 110.896 184.366 102.572 184.366 102.572C184.366 102.572 174.741 73.9309 168.137 70.9666C161.54 67.9952 148.169 83.3641 156.728 109.73Z" fill="#538DFF"></path><path d="M120.58 63.2324L109.356 77.7696L114.907 86.2786L108.41 94.3185L113.251 119.142" stroke="black" stroke-width="1.42173" stroke-miterlimit="10" stroke-linecap="round" stroke-linejoin="round"></path><path d="M144.337 62.0527L151.978 79.3267L143.661 89.1793L149.05 96.1102L141.621 121.502" stroke="black" stroke-width="1.42173" stroke-miterlimit="10" stroke-linecap="round" stroke-linejoin="round"></path><path d="M125.023 54.6807C125.023 54.6807 122.755 65.7417 121.881 70.206C120.814 75.6441 123.636 81.0182 131.484 79.17C139.339 77.3217 140.569 74.855 141.65 66.8507C141.714 66.3957 140.882 44.8281 140.882 44.8281C140.882 44.8281 132.721 55.1499 125.023 54.6807Z" fill="white" stroke="black" stroke-width="1.42173" stroke-miterlimit="10" stroke-linecap="round" stroke-linejoin="round"></path><path d="M128.108 55.9173C120.878 55.9173 115.014 50.0527 115.014 42.8232V32.473C115.014 25.2435 120.878 19.3789 128.108 19.3789C135.337 19.3789 141.202 25.2435 141.202 32.473V42.8232C141.202 50.0527 135.337 55.9173 128.108 55.9173Z" fill="white" stroke="black" stroke-width="1.42173" stroke-miterlimit="10" stroke-linecap="round" stroke-linejoin="round"></path><path d="M120.409 35.4318C121.212 34.6285 122.52 34.6285 123.324 35.4318M120.494 36.5763C120.494 39.8107 117.871 42.4338 114.637 42.4338C111.402 42.4338 108.779 39.8107 108.779 36.5763C108.779 33.3419 111.402 30.7188 114.637 30.7188C117.871 30.7117 120.494 33.3347 120.494 36.5763ZM135.259 36.5763C135.259 39.8107 132.636 42.4338 129.401 42.4338C126.167 42.4338 123.544 39.8107 123.544 36.5763C123.544 33.3419 126.167 30.7188 129.401 30.7188C132.636 30.7117 135.259 33.3347 135.259 36.5763Z" stroke="#A379FF" stroke-width="1.42173" stroke-miterlimit="10" stroke-linecap="round" stroke-linejoin="round"></path><path d="M121.478 35.5859C121.478 35.5859 120.284 41.0169 120.092 42.2041C119.992 42.8367 121.94 43.5903 121.94 43.5903M120.71 46.519C120.71 46.519 123.177 48.2109 126.873 45.5949" stroke="#080717" stroke-width="1.42173" stroke-miterlimit="10" stroke-linecap="round" stroke-linejoin="round"></path><path d="M147.963 40.6695C147.963 43.5627 145.617 45.9085 142.723 45.9085C139.83 45.9085 137.484 43.5627 137.484 40.6695C137.484 37.7762 139.83 35.4375 142.723 35.4375C145.624 35.4375 147.963 37.7762 147.963 40.6695Z" fill="white"></path><path d="M131.506 28.9677C131.705 26.4726 132.522 24.7665 133.524 23.686C132.863 24.9584 132.43 26.6929 132.465 28.9677H140.967C140.967 28.9677 156.457 21.7311 146.185 14.0325C141.045 10.1796 136.844 10.9686 133.738 12.4614C132.287 10.336 130.119 8.3953 127.375 7.87637C121.689 6.79586 106.355 10.3431 113.471 28.9748H122.598C123.295 25.321 124.71 22.6837 126.373 20.8923C125.293 22.9609 124.511 25.6266 124.269 28.9748H131.506V28.9677Z" fill="black"></path><path d="M113.059 136.755L110.223 131.196L110.336 125.523" stroke="black" stroke-width="1.42173" stroke-miterlimit="10" stroke-linecap="round" stroke-linejoin="round"></path><path d="M116.13 136.515L113.855 131.525L114.118 127.416" stroke="black" stroke-width="1.42173" stroke-miterlimit="10" stroke-linecap="round" stroke-linejoin="round"></path><path d="M88.0957 142.507H19.8172C18.0756 142.507 16.5188 141.42 15.9288 139.785L3.01241 104.291C2.03142 101.59 4.02895 98.7324 6.90084 98.7324H75.1722C76.9138 98.7324 78.4706 99.82 79.0606 101.455L91.977 136.941C92.9651 139.65 90.9676 142.507 88.0957 142.507Z" fill="white" stroke="black" stroke-width="1.42173" stroke-miterlimit="10" stroke-linecap="round" stroke-linejoin="round"></path><path d="M108.807 142.507L108.132 140.644C107.535 139.009 105.978 137.922 104.244 137.922H35.9651C33.4344 137.922 31.5861 140.14 31.8492 142.514H108.807V142.507Z" fill="white" stroke="black" stroke-width="1.42173" stroke-miterlimit="10" stroke-linecap="round" stroke-linejoin="round"></path><path d="M85.3288 143.254H17.0575C15.3159 143.254 13.7591 142.131 13.169 140.439L0.252649 103.773C-0.728343 100.979 1.26918 98.0293 4.14107 98.0293H72.4124C74.1541 98.0293 75.7109 99.1525 76.3009 100.844L89.2173 137.518C90.2054 140.304 88.2078 143.254 85.3288 143.254Z" fill="#080717"></path><path d="M47.988 119.966C48.8268 122.277 47.6397 124.153 45.3223 124.153C43.012 124.153 40.4528 122.277 39.6069 119.966C38.7681 117.656 39.9552 115.779 42.2727 115.779C44.5901 115.779 47.1492 117.649 47.988 119.966Z" fill="white" stroke="black" stroke-width="1.42173" stroke-miterlimit="10" stroke-linecap="round" stroke-linejoin="round"></path><path d="M103.719 76.832C103.719 76.832 101.26 95.5775 102.774 108.984" stroke="white" stroke-width="1.42173" stroke-miterlimit="10" stroke-linecap="round" stroke-linejoin="round"></path><path d="M141.088 40.6902C141.088 40.6902 141.657 37.9961 144.351 38.1382" stroke="#080717" stroke-width="1.42173" stroke-miterlimit="10" stroke-linecap="round" stroke-linejoin="round"></path><path d="M106.199 124.34L106.292 127.78" stroke="#282D33" stroke-width="1.42173" stroke-miterlimit="10" stroke-linecap="round" stroke-linejoin="round"></path></svg>